<svg width="308" height="308" viewBox="0 0 308 308" fill="none" xmlns="http://www.w3.org/2000/svg">
<rect width="308" height="308" fill="#04E69B"/>
<path d="M262.37 154.439C262.37 154.439 222.037 216.226 190.342 229.026L184.358 216.739C207.308 205.473 223.116 181.846 223.116 154.508C223.116 127.17 207.287 103.506 184.31 92.2509L190.348 79.8572C222.043 92.6572 262.37 154.439 262.37 154.439Z" fill="black"/>
<path d="M123.69 92.2455C100.713 103.5 84.8842 127.144 84.8842 154.503C84.8842 181.862 100.692 205.473 123.642 216.733L117.658 229.02C85.9626 216.226 45.6296 154.439 45.6296 154.439C45.6296 154.439 85.9626 92.6519 117.658 79.8518L123.69 92.2455Z" fill="black"/>
<path d="M153.992 94.2131C120.765 94.2131 93.8263 121.209 93.8263 154.503C93.8263 187.797 120.765 214.793 153.992 214.793C187.219 214.793 214.158 187.797 214.158 154.503C214.158 121.209 187.219 94.2131 153.992 94.2131ZM153.992 170.014C145.44 170.014 138.51 163.068 138.51 154.498C138.51 145.927 145.44 138.987 153.992 138.987C162.544 138.987 169.474 145.932 169.474 154.498C169.474 163.063 162.544 170.014 153.992 170.014Z" fill="black"/>
</svg>
